<svg xmlns="http://www.w3.org/2000/svg" width="256" height="256" viewBox="0 0 100 100"><rect width="100" height="100" rx="20" fill="#ffffff"></rect><path fill="#333333" d="M45.80 22.52L45.80 60.54Q45.80 61.94 45.20 62.71Q44.61 63.48 43.35 64.25L43.35 64.25Q41.95 65.16 39.36 65.96Q36.77 66.77 33.41 66.77L33.41 66.77Q29.63 66.77 26.48 65.79Q23.33 64.81 21.05 62.74Q18.78 60.68 17.55 57.49Q16.33 54.31 16.33 49.83L16.33 49.83Q16.33 45.28 17.59 42.02Q18.85 38.77 20.98 36.67Q23.12 34.56 26.02 33.59Q28.93 32.61 32.22 32.61L32.22 32.61Q34.46 32.61 36.56 33.16Q38.66 33.73 40.20 34.56L40.20 34.56L40.20 20.49Q40.55 20.35 41.28 20.18Q42.02 20.01 42.79 20.01L42.79 20.01Q45.80 20.01 45.80 22.52L45.80 22.52ZM40.20 60.33L40.20 39.61Q38.80 38.63 36.98 37.92Q35.16 37.23 32.78 37.23L32.78 37.23Q30.61 37.23 28.69 37.89Q26.76 38.55 25.29 40.06Q23.82 41.56 22.95 44.02Q22.07 46.47 22.07 49.97L22.07 49.97Q22.07 56.41 25.15 59.28Q28.23 62.15 33.34 62.15L33.34 62.15Q35.79 62.15 37.37 61.62Q38.94 61.10 40.20 60.33L40.20 60.33ZM78.07 66.91L78.07 62.50Q76.88 63.48 74.82 64.17Q72.75 64.88 69.88 64.88L69.88 64.88Q66.80 64.88 64.07 64Q61.34 63.13 59.28 61.20Q57.21 59.28 55.99 56.20Q54.76 53.12 54.76 48.70L54.76 48.70Q54.76 44.72 55.95 41.70Q57.14 38.70 59.28 36.67Q61.41 34.64 64.35 33.62Q67.29 32.61 70.86 32.61L70.86 32.61Q74.08 32.61 76.78 33.41Q79.47 34.22 81.29 35.41L81.29 35.41Q82.34 36.11 83.01 36.98Q83.67 37.86 83.67 39.12L83.67 39.12L83.67 67.26Q83.67 70.76 82.52 73.17Q81.36 75.59 79.30 77.09Q77.23 78.59 74.43 79.30Q71.63 80.00 68.41 80.00L68.41 80.00Q64.84 80.00 62.36 79.26Q59.87 78.53 58.96 77.97L58.96 77.97Q56.86 76.78 56.86 74.96L56.86 74.96Q56.86 73.98 57.32 73.31Q57.77 72.65 58.47 72.30L58.47 72.30Q59.94 73.42 62.60 74.36Q65.26 75.31 68.41 75.31L68.41 75.31Q73.10 75.31 75.59 73.31Q78.07 71.31 78.07 66.91L78.07 66.91ZM70.51 60.26L70.51 60.26Q73.31 60.26 75.09 59.38Q76.88 58.51 78.07 57.39L78.07 57.39L78.07 39.19Q76.88 38.42 75.09 37.82Q73.31 37.23 70.86 37.23L70.86 37.23Q66.10 37.23 63.27 40.09Q60.43 42.97 60.43 48.64L60.43 48.64Q60.43 51.79 61.20 53.99Q61.97 56.20 63.34 57.59Q64.70 59.00 66.56 59.63Q68.41 60.26 70.51 60.26Z"></path></svg>