<svg width="192" height="192" viewBox="0 0 192 192" fill="none" xmlns="http://www.w3.org/2000/svg">
<path d="M153.6 0H38.4C17.1923 0 0 17.1923 0 38.4V153.6C0 174.808 17.1923 192 38.4 192H153.6C174.808 192 192 174.808 192 153.6V38.4C192 17.1923 174.808 0 153.6 0Z" fill="white"/>
<path d="M87.9359 43.2384V116.237C87.9359 118.029 87.5519 119.418 86.7839 120.403C86.0287 121.389 84.8447 122.374 83.2319 123.36C81.4399 124.525 78.8863 125.619 75.5711 126.643C72.2559 127.68 68.4479 128.198 64.1471 128.198C59.3087 128.198 54.8735 127.571 50.8415 126.317C46.8095 125.062 43.3343 123.11 40.4159 120.461C37.5103 117.824 35.2703 114.464 33.6959 110.381C32.1343 106.31 31.3535 101.408 31.3535 95.6736C31.3535 89.8496 32.1599 84.8512 33.7727 80.6784C35.3855 76.5184 37.5551 73.0944 40.2815 70.4064C43.0207 67.7056 46.2463 65.7344 49.9583 64.4928C53.6831 63.2384 57.6511 62.6112 61.8623 62.6112C64.7295 62.6112 67.5071 62.9632 70.1951 63.6672C72.8831 64.3968 75.2127 65.2928 77.1839 66.3552V39.3408C77.6319 39.1616 78.3231 38.9632 79.2575 38.7456C80.2047 38.528 81.1711 38.4192 82.1567 38.4192C86.0095 38.4192 87.9359 40.0256 87.9359 43.2384ZM77.1839 115.834V76.0512C75.3919 74.7968 73.3311 73.7152 71.0015 72.8064C68.6719 71.9232 65.9839 71.4816 62.9375 71.4816C60.1599 71.4816 57.5423 71.904 55.0847 72.7488C52.6143 73.5936 50.4383 74.9824 48.5567 76.9152C46.6751 78.8352 45.1775 81.3696 44.0639 84.5184C42.9375 87.6544 42.3743 91.4624 42.3743 95.9424C42.3743 104.186 44.3455 110.144 48.2879 113.818C52.2303 117.491 57.4719 119.328 64.0127 119.328C67.1487 119.328 69.7279 118.989 71.7503 118.31C73.7599 117.645 75.5711 116.819 77.1839 115.834ZM149.894 128.467V120C148.371 121.254 146.291 122.323 143.654 123.206C141.005 124.115 137.843 124.57 134.169 124.57C130.227 124.57 126.509 124.006 123.014 122.88C119.52 121.766 116.454 119.974 113.818 117.504C111.168 115.046 109.062 111.846 107.501 107.904C105.926 103.962 105.139 99.1616 105.139 93.504C105.139 88.4096 105.901 83.9296 107.424 80.064C108.947 76.224 111.078 73.0048 113.818 70.4064C116.544 67.808 119.789 65.856 123.552 64.5504C127.315 63.2576 131.482 62.6112 136.051 62.6112C140.173 62.6112 143.962 63.1232 147.417 64.1472C150.861 65.184 153.747 66.464 156.077 67.9872C157.421 68.8832 158.522 69.888 159.379 71.0016C160.224 72.128 160.646 73.4976 160.646 75.1104V129.139C160.646 133.619 159.91 137.402 158.438 140.486C156.953 143.584 154.893 146.093 152.256 148.013C149.606 149.933 146.49 151.347 142.906 152.256C139.322 153.152 135.469 153.6 131.347 153.6C126.778 153.6 122.906 153.126 119.731 152.179C116.544 151.245 114.368 150.419 113.203 149.702C110.515 148.179 109.171 146.253 109.171 143.923C109.171 142.669 109.466 141.613 110.054 140.755C110.63 139.91 111.366 139.264 112.262 138.816C114.144 140.25 116.787 141.568 120.192 142.771C123.597 143.987 127.315 144.595 131.347 144.595C137.35 144.595 141.945 143.315 145.133 140.755C148.307 138.195 149.894 134.099 149.894 128.467ZM135.379 115.699C138.963 115.699 141.894 115.136 144.173 114.01C146.464 112.896 148.371 111.622 149.894 110.189V75.2448C148.371 74.2592 146.464 73.3824 144.173 72.6144C141.894 71.8592 139.187 71.4816 136.051 71.4816C129.958 71.4816 125.101 73.312 121.478 76.9728C117.843 80.6592 116.026 86.1312 116.026 93.3888C116.026 97.4208 116.518 100.845 117.504 103.661C118.49 106.49 119.859 108.794 121.613 110.573C123.354 112.378 125.414 113.683 127.795 114.49C130.163 115.296 132.691 115.699 135.379 115.699Z" fill="#333333"/>
</svg>
