<svg width="512" height="512" viewBox="0 0 512 512" fill="none" xmlns="http://www.w3.org/2000/svg">
<path d="M409.6 0H102.4C45.846 0 0 45.846 0 102.4V409.6C0 466.154 45.846 512 102.4 512H409.6C466.154 512 512 466.154 512 409.6V102.4C512 45.846 466.154 0 409.6 0Z" fill="white"/>
<path d="M234.496 115.302V309.965C234.496 314.743 233.472 318.447 231.424 321.075C229.41 323.703 226.253 326.332 221.952 328.96C217.173 332.066 210.364 334.984 201.523 337.715C192.683 340.48 182.528 341.862 171.059 341.862C158.157 341.862 146.33 340.19 135.578 336.845C124.826 333.5 115.558 328.294 107.776 321.229C100.028 314.197 94.0544 305.237 89.856 294.349C85.6917 283.494 83.6096 270.421 83.6096 255.13C83.6096 239.599 85.76 226.27 90.0608 215.142C94.3616 204.049 100.147 194.918 107.418 187.75C114.722 180.548 123.324 175.292 133.222 171.981C143.155 168.636 153.737 166.963 164.966 166.963C172.612 166.963 180.019 167.902 187.187 169.779C194.355 171.725 200.567 174.114 205.824 176.947V104.909C207.019 104.431 208.862 103.902 211.354 103.322C213.879 102.741 216.457 102.451 219.085 102.451C229.359 102.451 234.496 106.735 234.496 115.302ZM205.824 308.89V202.803C201.045 199.458 195.55 196.574 189.338 194.15C183.125 191.795 175.957 190.618 167.834 190.618C160.427 190.618 153.446 191.744 146.893 193.997C140.305 196.25 134.502 199.953 129.485 205.107C124.467 210.227 120.474 216.986 117.504 225.382C114.5 233.745 112.998 243.9 112.998 255.846C112.998 277.828 118.255 293.717 128.768 303.514C139.281 313.31 153.259 318.208 170.701 318.208C179.063 318.208 185.941 317.303 191.334 315.494C196.693 313.719 201.523 311.518 205.824 308.89ZM399.718 342.579V320C395.657 323.345 390.11 326.195 383.078 328.55C376.013 330.974 367.582 332.186 357.786 332.186C347.273 332.186 337.357 330.684 328.038 327.68C318.72 324.71 310.545 319.932 303.514 313.344C296.448 306.79 290.833 298.257 286.669 287.744C282.47 277.231 280.371 264.431 280.371 249.344C280.371 235.759 282.402 223.812 286.464 213.504C290.526 203.264 296.209 194.679 303.514 187.75C310.784 180.821 319.437 175.616 329.472 172.134C339.507 168.687 350.618 166.963 362.803 166.963C373.794 166.963 383.898 168.329 393.114 171.059C402.295 173.824 409.993 177.237 416.205 181.299C419.789 183.689 422.724 186.368 425.011 189.338C427.264 192.341 428.39 195.994 428.39 200.294V344.371C428.39 356.318 426.428 366.404 422.502 374.63C418.543 382.891 413.047 389.581 406.016 394.701C398.95 399.821 390.639 403.593 381.082 406.016C371.524 408.405 361.25 409.6 350.259 409.6C338.074 409.6 327.748 408.337 319.283 405.811C310.784 403.319 304.981 401.118 301.875 399.206C294.707 395.144 291.123 390.007 291.123 383.795C291.123 380.45 291.908 377.634 293.478 375.347C295.014 373.094 296.977 371.371 299.366 370.176C304.384 373.999 311.433 377.515 320.512 380.723C329.591 383.966 339.507 385.587 350.259 385.587C366.268 385.587 378.522 382.174 387.021 375.347C395.486 368.52 399.718 357.598 399.718 342.579ZM361.011 308.531C370.569 308.531 378.385 307.029 384.461 304.026C390.571 301.056 395.657 297.66 399.718 293.837V200.653C395.657 198.024 390.571 195.686 384.461 193.638C378.385 191.625 371.166 190.618 362.803 190.618C346.556 190.618 333.602 195.499 323.942 205.261C314.249 215.091 309.402 229.683 309.402 249.037C309.402 259.789 310.716 268.919 313.344 276.429C315.972 283.972 319.625 290.116 324.301 294.861C328.943 299.674 334.438 303.155 340.787 305.306C347.102 307.456 353.843 308.531 361.011 308.531Z" fill="#333333"/>
</svg>
